<mxfile host="app.diagrams.net" agent="Mozilla/5.0 (Windows NT 10.0; Win64; x64) AppleWebKit/537.36 (KHTML, like Gecko) Chrome/136.0.0.0 Safari/537.36" version="27.0.6">
  <diagram name="페이지-1" id="acbt0nLhAi-fUhKICGcB">
    <mxGraphModel dx="1685" dy="775" grid="1" gridSize="10" guides="1" tooltips="1" connect="1" arrows="1" fold="1" page="1" pageScale="1" pageWidth="827" pageHeight="1169" math="0" shadow="0">
      <root>
        <mxCell id="0" />
        <mxCell id="1" parent="0" />
        <mxCell id="moP1IjQAJDg3BQziUJU6-2" value="&lt;font style=&quot;font-size: 11px;&quot;&gt;&lt;b&gt;sd &lt;/b&gt;&lt;font style=&quot;&quot;&gt;회원 가입&lt;/font&gt;&lt;/font&gt;" style="shape=umlFrame;whiteSpace=wrap;html=1;pointerEvents=0;width=110;height=30;" parent="1" vertex="1">
          <mxGeometry x="10" y="30" width="1360" height="360" as="geometry" />
        </mxCell>
        <mxCell id="moP1IjQAJDg3BQziUJU6-4" value="&lt;b&gt;:Signup&lt;/b&gt;" style="html=1;whiteSpace=wrap;" parent="1" vertex="1">
          <mxGeometry x="470" y="170" width="110" height="50" as="geometry" />
        </mxCell>
        <mxCell id="moP1IjQAJDg3BQziUJU6-5" value="&lt;b&gt;:SignupUI&lt;/b&gt;" style="html=1;whiteSpace=wrap;" parent="1" vertex="1">
          <mxGeometry x="240" y="169" width="110" height="50" as="geometry" />
        </mxCell>
        <mxCell id="moP1IjQAJDg3BQziUJU6-6" value="&lt;b&gt;:회원&lt;/b&gt;" style="shape=umlActor;verticalLabelPosition=bottom;verticalAlign=top;html=1;" parent="1" vertex="1">
          <mxGeometry x="40" y="160" width="30" height="60" as="geometry" />
        </mxCell>
        <mxCell id="moP1IjQAJDg3BQziUJU6-9" value="" style="line;strokeWidth=1;fillColor=none;align=left;verticalAlign=middle;spacingTop=-1;spacingLeft=3;spacingRight=3;rotatable=0;labelPosition=right;points=[];portConstraint=eastwest;strokeColor=inherit;" parent="1" vertex="1">
          <mxGeometry x="70" y="190" width="170" height="8" as="geometry" />
        </mxCell>
        <mxCell id="moP1IjQAJDg3BQziUJU6-14" value="&lt;b&gt;1: submitSignupInfo()&lt;/b&gt;" style="html=1;verticalAlign=bottom;endArrow=block;curved=0;rounded=0;" parent="1" edge="1">
          <mxGeometry y="8" width="80" relative="1" as="geometry">
            <mxPoint x="120" y="168" as="sourcePoint" />
            <mxPoint x="200" y="168" as="targetPoint" />
            <mxPoint as="offset" />
          </mxGeometry>
        </mxCell>
        <mxCell id="moP1IjQAJDg3BQziUJU6-16" value="&lt;b&gt;1.1: signup()&lt;/b&gt;" style="html=1;verticalAlign=bottom;endArrow=block;curved=0;rounded=0;" parent="1" edge="1">
          <mxGeometry y="10" width="80" relative="1" as="geometry">
            <mxPoint x="376" y="175" as="sourcePoint" />
            <mxPoint x="456" y="175" as="targetPoint" />
            <mxPoint as="offset" />
          </mxGeometry>
        </mxCell>
        <mxCell id="moP1IjQAJDg3BQziUJU6-27" value="" style="endArrow=none;html=1;rounded=0;exitX=0;exitY=0.5;exitDx=0;exitDy=0;entryX=1;entryY=0.5;entryDx=0;entryDy=0;" parent="1" source="kKvPtTwiiA1jm8snr2tL-1" target="moP1IjQAJDg3BQziUJU6-4" edge="1">
          <mxGeometry width="50" height="50" relative="1" as="geometry">
            <mxPoint x="544.5" y="309" as="sourcePoint" />
            <mxPoint x="544.5" y="219" as="targetPoint" />
          </mxGeometry>
        </mxCell>
        <mxCell id="nvlYyYwGG8XTySucCO5U-1" value="&lt;b&gt;sd&lt;/b&gt; 로그인" style="shape=umlFrame;whiteSpace=wrap;html=1;pointerEvents=0;width=90;height=20;" parent="1" vertex="1">
          <mxGeometry x="10" y="410" width="1360" height="310" as="geometry" />
        </mxCell>
        <mxCell id="nvlYyYwGG8XTySucCO5U-2" value="&lt;b&gt;:Login&lt;/b&gt;" style="html=1;whiteSpace=wrap;" parent="1" vertex="1">
          <mxGeometry x="510" y="470" width="110" height="50" as="geometry" />
        </mxCell>
        <mxCell id="nvlYyYwGG8XTySucCO5U-3" value="&lt;b&gt;:LoginUI&lt;/b&gt;" style="html=1;whiteSpace=wrap;" parent="1" vertex="1">
          <mxGeometry x="260" y="469" width="110" height="50" as="geometry" />
        </mxCell>
        <mxCell id="nvlYyYwGG8XTySucCO5U-4" value="&lt;b&gt;:유저&lt;/b&gt;" style="shape=umlActor;verticalLabelPosition=bottom;verticalAlign=top;html=1;" parent="1" vertex="1">
          <mxGeometry x="60" y="460" width="30" height="60" as="geometry" />
        </mxCell>
        <mxCell id="nvlYyYwGG8XTySucCO5U-5" value="" style="line;strokeWidth=1;fillColor=none;align=left;verticalAlign=middle;spacingTop=-1;spacingLeft=3;spacingRight=3;rotatable=0;labelPosition=right;points=[];portConstraint=eastwest;strokeColor=inherit;" parent="1" vertex="1">
          <mxGeometry x="90" y="490" width="170" height="8" as="geometry" />
        </mxCell>
        <mxCell id="nvlYyYwGG8XTySucCO5U-6" value="" style="line;strokeWidth=1;fillColor=none;align=left;verticalAlign=middle;spacingTop=-1;spacingLeft=3;spacingRight=3;rotatable=0;labelPosition=right;points=[];portConstraint=eastwest;strokeColor=inherit;" parent="1" vertex="1">
          <mxGeometry x="370" y="491" width="140" height="8" as="geometry" />
        </mxCell>
        <mxCell id="nvlYyYwGG8XTySucCO5U-8" value="&lt;b&gt;1: submitLoginInfo()&lt;/b&gt;" style="html=1;verticalAlign=bottom;endArrow=block;curved=0;rounded=0;" parent="1" edge="1">
          <mxGeometry y="8" width="80" relative="1" as="geometry">
            <mxPoint x="140" y="468" as="sourcePoint" />
            <mxPoint x="220" y="468" as="targetPoint" />
            <mxPoint as="offset" />
          </mxGeometry>
        </mxCell>
        <mxCell id="nvlYyYwGG8XTySucCO5U-9" value="&lt;b&gt;1.1: login()&lt;/b&gt;" style="html=1;verticalAlign=bottom;endArrow=block;curved=0;rounded=0;" parent="1" edge="1">
          <mxGeometry y="10" width="80" relative="1" as="geometry">
            <mxPoint x="400" y="470" as="sourcePoint" />
            <mxPoint x="480" y="470" as="targetPoint" />
            <mxPoint as="offset" />
          </mxGeometry>
        </mxCell>
        <mxCell id="nvlYyYwGG8XTySucCO5U-17" value="&lt;b&gt;:Logout&lt;/b&gt;" style="html=1;whiteSpace=wrap;" parent="1" vertex="1">
          <mxGeometry x="409.5" y="801" width="110" height="50" as="geometry" />
        </mxCell>
        <mxCell id="nvlYyYwGG8XTySucCO5U-18" value="&lt;b&gt;:LogoutUI&lt;/b&gt;" style="html=1;whiteSpace=wrap;" parent="1" vertex="1">
          <mxGeometry x="190" y="800" width="110" height="50" as="geometry" />
        </mxCell>
        <mxCell id="nvlYyYwGG8XTySucCO5U-19" value="&lt;b&gt;:유저&lt;/b&gt;" style="shape=umlActor;verticalLabelPosition=bottom;verticalAlign=top;html=1;" parent="1" vertex="1">
          <mxGeometry x="70" y="791" width="30" height="60" as="geometry" />
        </mxCell>
        <mxCell id="nvlYyYwGG8XTySucCO5U-20" value="" style="line;strokeWidth=1;fillColor=none;align=left;verticalAlign=middle;spacingTop=-1;spacingLeft=3;spacingRight=3;rotatable=0;labelPosition=right;points=[];portConstraint=eastwest;strokeColor=inherit;" parent="1" vertex="1">
          <mxGeometry x="90" y="821" width="100" height="8" as="geometry" />
        </mxCell>
        <mxCell id="nvlYyYwGG8XTySucCO5U-21" value="" style="line;strokeWidth=1;fillColor=none;align=left;verticalAlign=middle;spacingTop=-1;spacingLeft=3;spacingRight=3;rotatable=0;labelPosition=right;points=[];portConstraint=eastwest;strokeColor=inherit;" parent="1" vertex="1">
          <mxGeometry x="300" y="822" width="110" height="8" as="geometry" />
        </mxCell>
        <mxCell id="nvlYyYwGG8XTySucCO5U-25" value="&lt;b&gt;sd &lt;/b&gt;로그아웃" style="shape=umlFrame;whiteSpace=wrap;html=1;pointerEvents=0;width=90;height=30;" parent="1" vertex="1">
          <mxGeometry x="10" y="740" width="1360" height="300" as="geometry" />
        </mxCell>
        <mxCell id="nvlYyYwGG8XTySucCO5U-26" value="&lt;font style=&quot;font-size: 11px;&quot;&gt;&lt;b&gt;sd &lt;/b&gt;&lt;font style=&quot;&quot;&gt;자전거 정보 등록&lt;/font&gt;&lt;/font&gt;" style="shape=umlFrame;whiteSpace=wrap;html=1;pointerEvents=0;width=140;height=30;" parent="1" vertex="1">
          <mxGeometry x="10" y="1060" width="1360" height="360" as="geometry" />
        </mxCell>
        <mxCell id="nvlYyYwGG8XTySucCO5U-27" value="&lt;b&gt;:AddBicycle&lt;/b&gt;" style="html=1;whiteSpace=wrap;" parent="1" vertex="1">
          <mxGeometry x="500" y="1182" width="110" height="50" as="geometry" />
        </mxCell>
        <mxCell id="nvlYyYwGG8XTySucCO5U-28" value="&lt;b&gt;:AddBicycleUI&lt;/b&gt;" style="html=1;whiteSpace=wrap;" parent="1" vertex="1">
          <mxGeometry x="250" y="1181" width="110" height="50" as="geometry" />
        </mxCell>
        <mxCell id="nvlYyYwGG8XTySucCO5U-29" value="" style="line;strokeWidth=1;fillColor=none;align=left;verticalAlign=middle;spacingTop=-1;spacingLeft=3;spacingRight=3;rotatable=0;labelPosition=right;points=[];portConstraint=eastwest;strokeColor=inherit;" parent="1" vertex="1">
          <mxGeometry x="80" y="1202" width="170" height="8" as="geometry" />
        </mxCell>
        <mxCell id="nvlYyYwGG8XTySucCO5U-30" value="" style="line;strokeWidth=1;fillColor=none;align=left;verticalAlign=middle;spacingTop=-1;spacingLeft=3;spacingRight=3;rotatable=0;labelPosition=right;points=[];portConstraint=eastwest;strokeColor=inherit;" parent="1" vertex="1">
          <mxGeometry x="360" y="1203" width="140" height="8" as="geometry" />
        </mxCell>
        <mxCell id="nvlYyYwGG8XTySucCO5U-32" value="&lt;b&gt;1: submitBicycleInfo()&lt;/b&gt;" style="html=1;verticalAlign=bottom;endArrow=block;curved=0;rounded=0;" parent="1" edge="1">
          <mxGeometry y="10" width="80" relative="1" as="geometry">
            <mxPoint x="130" y="1180" as="sourcePoint" />
            <mxPoint x="210" y="1180" as="targetPoint" />
            <mxPoint as="offset" />
          </mxGeometry>
        </mxCell>
        <mxCell id="nvlYyYwGG8XTySucCO5U-33" value="&lt;b&gt;1.1: addNewBicycle()&lt;/b&gt;" style="html=1;verticalAlign=bottom;endArrow=block;curved=0;rounded=0;" parent="1" edge="1">
          <mxGeometry y="12" width="80" relative="1" as="geometry">
            <mxPoint x="390" y="1182" as="sourcePoint" />
            <mxPoint x="470" y="1182" as="targetPoint" />
            <mxPoint as="offset" />
          </mxGeometry>
        </mxCell>
        <mxCell id="nvlYyYwGG8XTySucCO5U-34" value="" style="endArrow=none;html=1;rounded=0;exitX=0.5;exitY=0;exitDx=0;exitDy=0;entryX=0.354;entryY=0.98;entryDx=0;entryDy=0;entryPerimeter=0;" parent="1" source="nvlYyYwGG8XTySucCO5U-37" target="kKvPtTwiiA1jm8snr2tL-13" edge="1">
          <mxGeometry width="50" height="50" relative="1" as="geometry">
            <mxPoint x="530.0000000000002" y="1481.8000000000002" as="sourcePoint" />
            <mxPoint x="480" y="1375" as="targetPoint" />
          </mxGeometry>
        </mxCell>
        <mxCell id="nvlYyYwGG8XTySucCO5U-35" value="&lt;b&gt;1.1.1.1: Bicycle()&lt;/b&gt;" style="html=1;verticalAlign=bottom;endArrow=block;curved=0;rounded=0;" parent="1" edge="1">
          <mxGeometry x="1" y="-45" width="80" relative="1" as="geometry">
            <mxPoint x="730" y="1280" as="sourcePoint" />
            <mxPoint x="685" y="1310" as="targetPoint" />
            <mxPoint x="-15" y="17" as="offset" />
          </mxGeometry>
        </mxCell>
        <mxCell id="nvlYyYwGG8XTySucCO5U-36" value="&lt;b&gt;:관리자&lt;/b&gt;" style="shape=umlActor;verticalLabelPosition=bottom;verticalAlign=top;html=1;" parent="1" vertex="1">
          <mxGeometry x="40" y="1171" width="30" height="60" as="geometry" />
        </mxCell>
        <mxCell id="nvlYyYwGG8XTySucCO5U-37" value="&lt;b&gt;newBicycle:Bicycle&lt;/b&gt;" style="html=1;whiteSpace=wrap;" parent="1" vertex="1">
          <mxGeometry x="587.5" y="1350" width="160" height="50" as="geometry" />
        </mxCell>
        <mxCell id="nvlYyYwGG8XTySucCO5U-38" value="&lt;font style=&quot;font-size: 11px;&quot;&gt;&lt;b&gt;sd &lt;/b&gt;&lt;font style=&quot;&quot;&gt;자전거 대여 정보 조회&lt;/font&gt;&lt;/font&gt;" style="shape=umlFrame;whiteSpace=wrap;html=1;pointerEvents=0;width=180;height=20;" parent="1" vertex="1">
          <mxGeometry x="10" y="1440" width="1360" height="460" as="geometry" />
        </mxCell>
        <mxCell id="nvlYyYwGG8XTySucCO5U-39" value="&lt;b&gt;:ShowBicycleRentalInfo&lt;/b&gt;" style="html=1;whiteSpace=wrap;" parent="1" vertex="1">
          <mxGeometry x="550" y="1530.5" width="190" height="50" as="geometry" />
        </mxCell>
        <mxCell id="nvlYyYwGG8XTySucCO5U-40" value="&lt;b&gt;:ShowBicycleRentalInfoUI&lt;/b&gt;" style="html=1;whiteSpace=wrap;" parent="1" vertex="1">
          <mxGeometry x="234" y="1530" width="190" height="50" as="geometry" />
        </mxCell>
        <mxCell id="nvlYyYwGG8XTySucCO5U-41" value="" style="line;strokeWidth=1;fillColor=none;align=left;verticalAlign=middle;spacingTop=-1;spacingLeft=3;spacingRight=3;rotatable=0;labelPosition=right;points=[];portConstraint=eastwest;strokeColor=inherit;" parent="1" vertex="1">
          <mxGeometry x="90" y="1551" width="140" height="8" as="geometry" />
        </mxCell>
        <mxCell id="nvlYyYwGG8XTySucCO5U-42" value="" style="line;strokeWidth=1;fillColor=none;align=left;verticalAlign=middle;spacingTop=-1;spacingLeft=3;spacingRight=3;rotatable=0;labelPosition=right;points=[];portConstraint=eastwest;strokeColor=inherit;" parent="1" vertex="1">
          <mxGeometry x="424" y="1551.5" width="126" height="8" as="geometry" />
        </mxCell>
        <mxCell id="nvlYyYwGG8XTySucCO5U-43" value="&lt;b&gt;4: startInterface()&lt;/b&gt;" style="html=1;verticalAlign=bottom;endArrow=block;curved=0;rounded=0;" parent="1" edge="1">
          <mxGeometry x="-0.15" y="31" width="80" relative="1" as="geometry">
            <mxPoint x="524" y="1568" as="sourcePoint" />
            <mxPoint x="444" y="1568" as="targetPoint" />
            <mxPoint as="offset" />
          </mxGeometry>
        </mxCell>
        <mxCell id="nvlYyYwGG8XTySucCO5U-46" value="" style="endArrow=none;html=1;rounded=0;exitX=0.5;exitY=0;exitDx=0;exitDy=0;entryX=0.842;entryY=0.99;entryDx=0;entryDy=0;entryPerimeter=0;" parent="1" target="nvlYyYwGG8XTySucCO5U-39" edge="1">
          <mxGeometry width="50" height="50" relative="1" as="geometry">
            <mxPoint x="944.66" y="1704.5" as="sourcePoint" />
            <mxPoint x="944.66" y="1604.5" as="targetPoint" />
          </mxGeometry>
        </mxCell>
        <mxCell id="nvlYyYwGG8XTySucCO5U-47" value="&lt;b&gt;3: *[for all bicycles] : getBicycleDetail()&lt;/b&gt;" style="html=1;verticalAlign=bottom;endArrow=block;curved=0;rounded=0;" parent="1" edge="1">
          <mxGeometry x="1" y="113" width="80" relative="1" as="geometry">
            <mxPoint x="820" y="1610" as="sourcePoint" />
            <mxPoint x="900" y="1654.5" as="targetPoint" />
            <mxPoint x="55" y="74" as="offset" />
          </mxGeometry>
        </mxCell>
        <mxCell id="nvlYyYwGG8XTySucCO5U-48" value="&lt;b&gt;:회원&lt;/b&gt;" style="shape=umlActor;verticalLabelPosition=bottom;verticalAlign=top;html=1;" parent="1" vertex="1">
          <mxGeometry x="50" y="1520" width="30" height="60" as="geometry" />
        </mxCell>
        <mxCell id="nvlYyYwGG8XTySucCO5U-49" value="&lt;b&gt;:Bicycle&lt;/b&gt;" style="html=1;whiteSpace=wrap;" parent="1" vertex="1">
          <mxGeometry x="877.5" y="1703" width="135" height="50" as="geometry" />
        </mxCell>
        <mxCell id="4MyRHnNNQHZquPPOq6WB-30" value="&lt;font style=&quot;font-size: 11px;&quot;&gt;&lt;b&gt;sd &lt;/b&gt;&lt;font style=&quot;&quot;&gt;자전거 대여&lt;/font&gt;&lt;/font&gt;" style="shape=umlFrame;whiteSpace=wrap;html=1;pointerEvents=0;width=180;height=20;" parent="1" vertex="1">
          <mxGeometry x="10" y="1936" width="1360" height="510" as="geometry" />
        </mxCell>
        <mxCell id="4MyRHnNNQHZquPPOq6WB-31" value="&lt;b&gt;:RentBicycle&lt;/b&gt;" style="html=1;whiteSpace=wrap;" parent="1" vertex="1">
          <mxGeometry x="587.5" y="2046" width="190" height="50" as="geometry" />
        </mxCell>
        <mxCell id="4MyRHnNNQHZquPPOq6WB-32" value="&lt;b&gt;:RentBicycleUI&lt;/b&gt;" style="html=1;whiteSpace=wrap;" parent="1" vertex="1">
          <mxGeometry x="244" y="2046" width="190" height="50" as="geometry" />
        </mxCell>
        <mxCell id="4MyRHnNNQHZquPPOq6WB-33" value="" style="line;strokeWidth=1;fillColor=none;align=left;verticalAlign=middle;spacingTop=-1;spacingLeft=3;spacingRight=3;rotatable=0;labelPosition=right;points=[];portConstraint=eastwest;strokeColor=inherit;" parent="1" vertex="1">
          <mxGeometry x="100" y="2067" width="140" height="8" as="geometry" />
        </mxCell>
        <mxCell id="4MyRHnNNQHZquPPOq6WB-34" value="" style="line;strokeWidth=1;fillColor=none;align=left;verticalAlign=middle;spacingTop=-1;spacingLeft=3;spacingRight=3;rotatable=0;labelPosition=right;points=[];portConstraint=eastwest;strokeColor=inherit;" parent="1" vertex="1">
          <mxGeometry x="434" y="2067.5" width="156" height="8" as="geometry" />
        </mxCell>
        <mxCell id="4MyRHnNNQHZquPPOq6WB-36" value="" style="endArrow=none;html=1;rounded=0;exitX=0.5;exitY=0;exitDx=0;exitDy=0;entryX=0.911;entryY=1.064;entryDx=0;entryDy=0;entryPerimeter=0;" parent="1" source="4MyRHnNNQHZquPPOq6WB-39" target="4MyRHnNNQHZquPPOq6WB-31" edge="1">
          <mxGeometry width="50" height="50" relative="1" as="geometry">
            <mxPoint x="912.16" y="2196" as="sourcePoint" />
            <mxPoint x="912.16" y="2096" as="targetPoint" />
          </mxGeometry>
        </mxCell>
        <mxCell id="4MyRHnNNQHZquPPOq6WB-38" value="&lt;b&gt;:회원&lt;/b&gt;" style="shape=umlActor;verticalLabelPosition=bottom;verticalAlign=top;html=1;" parent="1" vertex="1">
          <mxGeometry x="60" y="2036" width="30" height="60" as="geometry" />
        </mxCell>
        <mxCell id="4MyRHnNNQHZquPPOq6WB-39" value="&lt;b&gt;:Member&lt;/b&gt;" style="html=1;whiteSpace=wrap;" parent="1" vertex="1">
          <mxGeometry x="980" y="2196" width="135" height="50" as="geometry" />
        </mxCell>
        <mxCell id="4MyRHnNNQHZquPPOq6WB-41" value="&lt;b&gt;1. selectBicycle()&lt;/b&gt;" style="html=1;verticalAlign=bottom;endArrow=block;curved=0;rounded=0;" parent="1" edge="1">
          <mxGeometry y="10" width="80" relative="1" as="geometry">
            <mxPoint x="130" y="2055" as="sourcePoint" />
            <mxPoint x="210" y="2055" as="targetPoint" />
            <mxPoint as="offset" />
          </mxGeometry>
        </mxCell>
        <mxCell id="4MyRHnNNQHZquPPOq6WB-42" value="&lt;b&gt;1.1 rentBicycle()&lt;/b&gt;" style="html=1;verticalAlign=bottom;endArrow=block;curved=0;rounded=0;" parent="1" edge="1">
          <mxGeometry x="-0.05" y="10" width="80" relative="1" as="geometry">
            <mxPoint x="472" y="2055" as="sourcePoint" />
            <mxPoint x="552" y="2055" as="targetPoint" />
            <mxPoint as="offset" />
          </mxGeometry>
        </mxCell>
        <mxCell id="4MyRHnNNQHZquPPOq6WB-43" value="&lt;b&gt;1.1.3: addRentedBicycles()&lt;/b&gt;" style="html=1;verticalAlign=bottom;endArrow=block;curved=0;rounded=0;" parent="1" edge="1">
          <mxGeometry x="1" y="72" width="80" relative="1" as="geometry">
            <mxPoint x="898.96" y="2126" as="sourcePoint" />
            <mxPoint x="978.96" y="2156" as="targetPoint" />
            <mxPoint x="46" y="58" as="offset" />
          </mxGeometry>
        </mxCell>
        <mxCell id="KVHF5Dy5_9hEab3SbXI--2" value="&lt;b&gt;:Member&lt;/b&gt;" style="html=1;whiteSpace=wrap;" parent="1" vertex="1">
          <mxGeometry x="565" y="1703" width="135" height="50" as="geometry" />
        </mxCell>
        <mxCell id="KVHF5Dy5_9hEab3SbXI--3" value="" style="endArrow=none;html=1;rounded=0;exitX=0.5;exitY=0;exitDx=0;exitDy=0;entryX=0.5;entryY=1;entryDx=0;entryDy=0;" parent="1" source="KVHF5Dy5_9hEab3SbXI--2" target="nvlYyYwGG8XTySucCO5U-39" edge="1">
          <mxGeometry width="50" height="50" relative="1" as="geometry">
            <mxPoint x="890" y="1703" as="sourcePoint" />
            <mxPoint x="890" y="1604" as="targetPoint" />
          </mxGeometry>
        </mxCell>
        <mxCell id="KVHF5Dy5_9hEab3SbXI--4" value="&lt;b&gt;2: listRentedBicycles()&lt;/b&gt;" style="html=1;verticalAlign=bottom;endArrow=block;curved=0;rounded=0;" parent="1" edge="1">
          <mxGeometry x="0.5686" y="88" width="80" relative="1" as="geometry">
            <mxPoint x="652" y="1630" as="sourcePoint" />
            <mxPoint x="652" y="1681" as="targetPoint" />
            <mxPoint as="offset" />
          </mxGeometry>
        </mxCell>
        <mxCell id="KVHF5Dy5_9hEab3SbXI--6" value="&lt;b&gt;members:RegisteredMember&lt;/b&gt;" style="html=1;whiteSpace=wrap;" parent="1" vertex="1">
          <mxGeometry x="512.5" y="2196" width="235" height="50" as="geometry" />
        </mxCell>
        <mxCell id="KVHF5Dy5_9hEab3SbXI--7" value="" style="endArrow=none;html=1;rounded=0;exitX=0.57;exitY=-0.027;exitDx=0;exitDy=0;exitPerimeter=0;entryX=0.5;entryY=1;entryDx=0;entryDy=0;" parent="1" source="KVHF5Dy5_9hEab3SbXI--6" target="4MyRHnNNQHZquPPOq6WB-31" edge="1">
          <mxGeometry width="50" height="50" relative="1" as="geometry">
            <mxPoint x="860" y="2196" as="sourcePoint" />
            <mxPoint x="860" y="2097" as="targetPoint" />
          </mxGeometry>
        </mxCell>
        <mxCell id="KVHF5Dy5_9hEab3SbXI--8" value="&lt;b&gt;1.1.2: getLoggedInMember()&lt;/b&gt;" style="html=1;verticalAlign=bottom;endArrow=block;curved=0;rounded=0;" parent="1" edge="1">
          <mxGeometry x="-0.5256" y="103" width="80" relative="1" as="geometry">
            <mxPoint x="684" y="2130" as="sourcePoint" />
            <mxPoint x="670" y="2179" as="targetPoint" />
            <mxPoint as="offset" />
          </mxGeometry>
        </mxCell>
        <mxCell id="CLofnSKexCBnrSgRC7de-2" value="&lt;b&gt;4: startInterface()&lt;/b&gt;" style="html=1;verticalAlign=bottom;endArrow=block;curved=0;rounded=0;" parent="1" edge="1">
          <mxGeometry y="40" width="80" relative="1" as="geometry">
            <mxPoint x="390" y="840" as="sourcePoint" />
            <mxPoint x="310" y="840" as="targetPoint" />
            <mxPoint as="offset" />
          </mxGeometry>
        </mxCell>
        <mxCell id="CLofnSKexCBnrSgRC7de-3" value="" style="endArrow=none;html=1;rounded=0;exitX=0.5;exitY=0;exitDx=0;exitDy=0;entryX=0.5;entryY=1;entryDx=0;entryDy=0;" parent="1" source="CLofnSKexCBnrSgRC7de-5" target="nvlYyYwGG8XTySucCO5U-2" edge="1">
          <mxGeometry width="50" height="50" relative="1" as="geometry">
            <mxPoint x="409.29" y="590" as="sourcePoint" />
            <mxPoint x="409.29" y="520" as="targetPoint" />
          </mxGeometry>
        </mxCell>
        <mxCell id="CLofnSKexCBnrSgRC7de-4" value="&lt;b&gt;1.1.2: login()&lt;/b&gt;" style="html=1;verticalAlign=bottom;endArrow=block;curved=0;rounded=0;" parent="1" edge="1">
          <mxGeometry x="0.3183" y="-64" width="80" relative="1" as="geometry">
            <mxPoint x="549.21" y="550" as="sourcePoint" />
            <mxPoint x="549" y="608" as="targetPoint" />
            <mxPoint as="offset" />
          </mxGeometry>
        </mxCell>
        <mxCell id="CLofnSKexCBnrSgRC7de-5" value="&lt;b&gt;:Member&lt;/b&gt;" style="html=1;whiteSpace=wrap;" parent="1" vertex="1">
          <mxGeometry x="497.5000000000001" y="633.75" width="135" height="42.5" as="geometry" />
        </mxCell>
        <mxCell id="kKvPtTwiiA1jm8snr2tL-1" value="&lt;b&gt;members:RegisteredMember&lt;/b&gt;" style="html=1;whiteSpace=wrap;" parent="1" vertex="1">
          <mxGeometry x="720" y="169" width="240" height="50" as="geometry" />
        </mxCell>
        <mxCell id="kKvPtTwiiA1jm8snr2tL-6" value="" style="endArrow=none;html=1;rounded=0;exitX=0;exitY=0.5;exitDx=0;exitDy=0;entryX=1;entryY=0.5;entryDx=0;entryDy=0;" parent="1" source="kKvPtTwiiA1jm8snr2tL-7" target="nvlYyYwGG8XTySucCO5U-2" edge="1">
          <mxGeometry width="50" height="50" relative="1" as="geometry">
            <mxPoint x="552.5" y="610" as="sourcePoint" />
            <mxPoint x="552.5" y="520" as="targetPoint" />
          </mxGeometry>
        </mxCell>
        <mxCell id="kKvPtTwiiA1jm8snr2tL-7" value="&lt;b&gt;members:RegisteredMember&lt;/b&gt;" style="html=1;whiteSpace=wrap;" parent="1" vertex="1">
          <mxGeometry x="787.5" y="470" width="217.5" height="50" as="geometry" />
        </mxCell>
        <mxCell id="kKvPtTwiiA1jm8snr2tL-8" value="&lt;b&gt;1.1.1: findMember()&lt;/b&gt;" style="html=1;verticalAlign=bottom;endArrow=block;curved=0;rounded=0;" parent="1" edge="1">
          <mxGeometry x="0.088" y="10" width="80" relative="1" as="geometry">
            <mxPoint x="669.35" y="480.4" as="sourcePoint" />
            <mxPoint x="735" y="480" as="targetPoint" />
            <mxPoint as="offset" />
          </mxGeometry>
        </mxCell>
        <mxCell id="kKvPtTwiiA1jm8snr2tL-9" value="" style="endArrow=none;html=1;rounded=0;exitX=0;exitY=0.5;exitDx=0;exitDy=0;entryX=1;entryY=0.5;entryDx=0;entryDy=0;" parent="1" source="kKvPtTwiiA1jm8snr2tL-10" target="nvlYyYwGG8XTySucCO5U-17" edge="1">
          <mxGeometry width="50" height="50" relative="1" as="geometry">
            <mxPoint x="552.5" y="941" as="sourcePoint" />
            <mxPoint x="552.5" y="851" as="targetPoint" />
          </mxGeometry>
        </mxCell>
        <mxCell id="kKvPtTwiiA1jm8snr2tL-10" value="&lt;b&gt;members:RegisteredMember&lt;/b&gt;" style="html=1;whiteSpace=wrap;" parent="1" vertex="1">
          <mxGeometry x="700" y="801" width="227.5" height="50" as="geometry" />
        </mxCell>
        <mxCell id="kKvPtTwiiA1jm8snr2tL-12" value="" style="endArrow=none;html=1;rounded=0;exitX=0;exitY=0.5;exitDx=0;exitDy=0;entryX=1;entryY=0.5;entryDx=0;entryDy=0;" parent="1" source="kKvPtTwiiA1jm8snr2tL-13" target="nvlYyYwGG8XTySucCO5U-27" edge="1">
          <mxGeometry width="50" height="50" relative="1" as="geometry">
            <mxPoint x="490" y="1330" as="sourcePoint" />
            <mxPoint x="490" y="1240" as="targetPoint" />
          </mxGeometry>
        </mxCell>
        <mxCell id="kKvPtTwiiA1jm8snr2tL-13" value="&lt;b&gt;bicycles:RegisteredBicycle&lt;/b&gt;" style="html=1;whiteSpace=wrap;" parent="1" vertex="1">
          <mxGeometry x="747.5" y="1181" width="205" height="50" as="geometry" />
        </mxCell>
        <mxCell id="kKvPtTwiiA1jm8snr2tL-14" value="&lt;b&gt;1.1.1: addBicycle()&lt;/b&gt;" style="html=1;verticalAlign=bottom;endArrow=block;curved=0;rounded=0;" parent="1" edge="1">
          <mxGeometry x="-0.1111" y="10" width="80" relative="1" as="geometry">
            <mxPoint x="640" y="1190" as="sourcePoint" />
            <mxPoint x="730" y="1190" as="targetPoint" />
            <mxPoint as="offset" />
          </mxGeometry>
        </mxCell>
        <mxCell id="kKvPtTwiiA1jm8snr2tL-15" value="&lt;b&gt;bicycles:RegisteredBicycle&lt;/b&gt;" style="html=1;whiteSpace=wrap;" parent="1" vertex="1">
          <mxGeometry x="190" y="2196" width="200" height="50" as="geometry" />
        </mxCell>
        <mxCell id="kKvPtTwiiA1jm8snr2tL-16" value="" style="endArrow=none;html=1;rounded=0;exitX=0.57;exitY=-0.027;exitDx=0;exitDy=0;exitPerimeter=0;entryX=0;entryY=1;entryDx=0;entryDy=0;" parent="1" source="kKvPtTwiiA1jm8snr2tL-15" target="4MyRHnNNQHZquPPOq6WB-31" edge="1">
          <mxGeometry width="50" height="50" relative="1" as="geometry">
            <mxPoint x="490" y="2204" as="sourcePoint" />
            <mxPoint x="490" y="2105" as="targetPoint" />
          </mxGeometry>
        </mxCell>
        <mxCell id="kKvPtTwiiA1jm8snr2tL-17" value="&lt;b&gt;1.1.1: findBicycle()&lt;/b&gt;" style="html=1;verticalAlign=bottom;endArrow=block;curved=0;rounded=0;" parent="1" edge="1">
          <mxGeometry x="1" y="-28" width="80" relative="1" as="geometry">
            <mxPoint x="430" y="2136" as="sourcePoint" />
            <mxPoint x="320" y="2175" as="targetPoint" />
            <mxPoint x="-8" y="5" as="offset" />
          </mxGeometry>
        </mxCell>
        <mxCell id="kKvPtTwiiA1jm8snr2tL-18" value="&lt;b&gt;members:RegisteredMember&lt;/b&gt;" style="html=1;whiteSpace=wrap;" parent="1" vertex="1">
          <mxGeometry x="320" y="1703.5" width="230" height="50" as="geometry" />
        </mxCell>
        <mxCell id="kKvPtTwiiA1jm8snr2tL-19" value="" style="endArrow=none;html=1;rounded=0;exitX=0.57;exitY=-0.027;exitDx=0;exitDy=0;exitPerimeter=0;entryX=0.25;entryY=1;entryDx=0;entryDy=0;" parent="1" source="kKvPtTwiiA1jm8snr2tL-18" target="nvlYyYwGG8XTySucCO5U-39" edge="1">
          <mxGeometry width="50" height="50" relative="1" as="geometry">
            <mxPoint x="600" y="1703.5" as="sourcePoint" />
            <mxPoint x="600" y="1604.5" as="targetPoint" />
          </mxGeometry>
        </mxCell>
        <mxCell id="kKvPtTwiiA1jm8snr2tL-20" value="&lt;b&gt;1: getLoggedInMember()&lt;/b&gt;" style="html=1;verticalAlign=bottom;endArrow=block;curved=0;rounded=0;" parent="1" edge="1">
          <mxGeometry x="1" y="-71" width="80" relative="1" as="geometry">
            <mxPoint x="505" y="1647.5" as="sourcePoint" />
            <mxPoint x="460" y="1680" as="targetPoint" />
            <mxPoint x="-28" y="47" as="offset" />
          </mxGeometry>
        </mxCell>
        <mxCell id="gBwXuVbzLufZy-i5T6mZ-4" value="&lt;b&gt;1.1.1: addMember()&lt;/b&gt;" style="html=1;verticalAlign=bottom;endArrow=block;curved=0;rounded=0;" parent="1" edge="1">
          <mxGeometry y="10" width="80" relative="1" as="geometry">
            <mxPoint x="612" y="181" as="sourcePoint" />
            <mxPoint x="692" y="181" as="targetPoint" />
            <mxPoint as="offset" />
          </mxGeometry>
        </mxCell>
        <mxCell id="gBwXuVbzLufZy-i5T6mZ-5" value="" style="endArrow=none;html=1;rounded=0;exitX=0;exitY=0.5;exitDx=0;exitDy=0;entryX=1;entryY=0.5;entryDx=0;entryDy=0;" parent="1" source="moP1IjQAJDg3BQziUJU6-4" target="moP1IjQAJDg3BQziUJU6-5" edge="1">
          <mxGeometry width="50" height="50" relative="1" as="geometry">
            <mxPoint x="470" y="193.5" as="sourcePoint" />
            <mxPoint x="350" y="194.5" as="targetPoint" />
          </mxGeometry>
        </mxCell>
        <mxCell id="gBwXuVbzLufZy-i5T6mZ-7" value="" style="endArrow=none;html=1;rounded=0;exitX=0.5;exitY=0;exitDx=0;exitDy=0;" parent="1" source="gBwXuVbzLufZy-i5T6mZ-8" edge="1">
          <mxGeometry width="50" height="50" relative="1" as="geometry">
            <mxPoint x="812.5" y="310" as="sourcePoint" />
            <mxPoint x="812.5" y="220" as="targetPoint" />
          </mxGeometry>
        </mxCell>
        <mxCell id="gBwXuVbzLufZy-i5T6mZ-8" value="&lt;b&gt;newMember:Member&lt;/b&gt;" style="html=1;whiteSpace=wrap;" parent="1" vertex="1">
          <mxGeometry x="570" y="330" width="217.5" height="50" as="geometry" />
        </mxCell>
        <mxCell id="gBwXuVbzLufZy-i5T6mZ-9" value="&lt;b&gt;1.1.1.1:&amp;nbsp;&lt;/b&gt;&lt;b&gt;Member()&lt;/b&gt;" style="html=1;verticalAlign=bottom;endArrow=block;curved=0;rounded=0;" parent="1" edge="1">
          <mxGeometry x="1" y="-54" width="80" relative="1" as="geometry">
            <mxPoint x="752.5" y="251" as="sourcePoint" />
            <mxPoint x="700" y="290" as="targetPoint" />
            <mxPoint x="-18" y="24" as="offset" />
          </mxGeometry>
        </mxCell>
        <mxCell id="gBwXuVbzLufZy-i5T6mZ-10" value="" style="endArrow=none;html=1;rounded=0;exitX=0.381;exitY=0.046;exitDx=0;exitDy=0;exitPerimeter=0;" parent="1" source="gBwXuVbzLufZy-i5T6mZ-12" edge="1">
          <mxGeometry width="50" height="50" relative="1" as="geometry">
            <mxPoint x="847.5" y="290" as="sourcePoint" />
            <mxPoint x="847.5" y="220" as="targetPoint" />
          </mxGeometry>
        </mxCell>
        <mxCell id="gBwXuVbzLufZy-i5T6mZ-11" value="&lt;b&gt;1.1.1.2: addMember()&lt;/b&gt;" style="html=1;verticalAlign=bottom;endArrow=block;curved=0;rounded=0;" parent="1" edge="1">
          <mxGeometry x="1" y="75" width="80" relative="1" as="geometry">
            <mxPoint x="891.42" y="258" as="sourcePoint" />
            <mxPoint x="916.92" y="298" as="targetPoint" />
            <mxPoint x="9" y="21" as="offset" />
          </mxGeometry>
        </mxCell>
        <mxCell id="gBwXuVbzLufZy-i5T6mZ-12" value="&lt;b&gt;:MemberCollection&lt;/b&gt;" style="html=1;whiteSpace=wrap;" parent="1" vertex="1">
          <mxGeometry x="867.92" y="333.75" width="142.08" height="42.5" as="geometry" />
        </mxCell>
        <mxCell id="gBwXuVbzLufZy-i5T6mZ-13" value="" style="endArrow=none;html=1;rounded=0;exitX=0.5;exitY=0;exitDx=0;exitDy=0;entryX=0.5;entryY=1;entryDx=0;entryDy=0;" parent="1" source="gBwXuVbzLufZy-i5T6mZ-15" target="kKvPtTwiiA1jm8snr2tL-7" edge="1">
          <mxGeometry width="50" height="50" relative="1" as="geometry">
            <mxPoint x="720" y="630" as="sourcePoint" />
            <mxPoint x="854" y="520" as="targetPoint" />
          </mxGeometry>
        </mxCell>
        <mxCell id="gBwXuVbzLufZy-i5T6mZ-15" value="&lt;b&gt;:MemberCollection&lt;/b&gt;" style="html=1;whiteSpace=wrap;" parent="1" vertex="1">
          <mxGeometry x="825.21" y="633.75" width="142.08" height="42.5" as="geometry" />
        </mxCell>
        <mxCell id="gBwXuVbzLufZy-i5T6mZ-16" value="&lt;b&gt;1.1.1.1: find&lt;/b&gt;&lt;b&gt;Member()&lt;/b&gt;" style="html=1;verticalAlign=bottom;endArrow=block;curved=0;rounded=0;" parent="1" edge="1">
          <mxGeometry x="0.3243" y="-85" width="80" relative="1" as="geometry">
            <mxPoint x="876.25" y="546" as="sourcePoint" />
            <mxPoint x="876" y="620" as="targetPoint" />
            <mxPoint as="offset" />
          </mxGeometry>
        </mxCell>
        <mxCell id="gBwXuVbzLufZy-i5T6mZ-17" value="&lt;b&gt;1: getLoggedInMember()&lt;/b&gt;" style="html=1;verticalAlign=bottom;endArrow=block;curved=0;rounded=0;" parent="1" edge="1">
          <mxGeometry x="0.088" y="10" width="80" relative="1" as="geometry">
            <mxPoint x="573.77" y="811.4" as="sourcePoint" />
            <mxPoint x="639.42" y="811" as="targetPoint" />
            <mxPoint as="offset" />
          </mxGeometry>
        </mxCell>
        <mxCell id="gBwXuVbzLufZy-i5T6mZ-21" value="" style="endArrow=none;html=1;rounded=0;exitX=0.5;exitY=0;exitDx=0;exitDy=0;" parent="1" source="gBwXuVbzLufZy-i5T6mZ-22" edge="1">
          <mxGeometry width="50" height="50" relative="1" as="geometry">
            <mxPoint x="642.79" y="960" as="sourcePoint" />
            <mxPoint x="810" y="851" as="targetPoint" />
          </mxGeometry>
        </mxCell>
        <mxCell id="gBwXuVbzLufZy-i5T6mZ-22" value="&lt;b&gt;:MemberCollection&lt;/b&gt;" style="html=1;whiteSpace=wrap;" parent="1" vertex="1">
          <mxGeometry x="740" y="960.85" width="142.08" height="42.5" as="geometry" />
        </mxCell>
        <mxCell id="gBwXuVbzLufZy-i5T6mZ-23" value="&lt;b&gt;1.1: getAll&lt;/b&gt;&lt;b&gt;Members()&lt;/b&gt;" style="html=1;verticalAlign=bottom;endArrow=block;curved=0;rounded=0;" parent="1" edge="1">
          <mxGeometry x="0.5308" y="-85" width="80" relative="1" as="geometry">
            <mxPoint x="795.29" y="880" as="sourcePoint" />
            <mxPoint x="795" y="920" as="targetPoint" />
            <mxPoint as="offset" />
          </mxGeometry>
        </mxCell>
        <mxCell id="FN6uFi2FY-VIn-DNgAR3-1" value="" style="endArrow=none;html=1;rounded=0;exitX=0.381;exitY=0.046;exitDx=0;exitDy=0;exitPerimeter=0;" parent="1" source="FN6uFi2FY-VIn-DNgAR3-3" edge="1">
          <mxGeometry width="50" height="50" relative="1" as="geometry">
            <mxPoint x="840" y="1302" as="sourcePoint" />
            <mxPoint x="840" y="1232" as="targetPoint" />
          </mxGeometry>
        </mxCell>
        <mxCell id="FN6uFi2FY-VIn-DNgAR3-2" value="&lt;b&gt;1.1.1.2: addBicycle()&lt;/b&gt;" style="html=1;verticalAlign=bottom;endArrow=block;curved=0;rounded=0;" parent="1" edge="1">
          <mxGeometry x="1" y="71" width="80" relative="1" as="geometry">
            <mxPoint x="917.0000000000001" y="1281" as="sourcePoint" />
            <mxPoint x="946.58" y="1321" as="targetPoint" />
            <mxPoint x="13" y="32" as="offset" />
          </mxGeometry>
        </mxCell>
        <mxCell id="FN6uFi2FY-VIn-DNgAR3-3" value="&lt;b&gt;:BicycleCollection&lt;/b&gt;" style="html=1;whiteSpace=wrap;" parent="1" vertex="1">
          <mxGeometry x="900.0000000000001" y="1353.75" width="135" height="42.5" as="geometry" />
        </mxCell>
        <mxCell id="FN6uFi2FY-VIn-DNgAR3-4" value="&lt;b&gt;:MemberCollection&lt;/b&gt;" style="html=1;whiteSpace=wrap;" parent="1" vertex="1">
          <mxGeometry x="30" y="1711" width="142.08" height="42.5" as="geometry" />
        </mxCell>
        <mxCell id="FN6uFi2FY-VIn-DNgAR3-5" value="&lt;b&gt;1.1: getAllMembers()&lt;/b&gt;" style="html=1;verticalAlign=bottom;endArrow=block;curved=0;rounded=0;" parent="1" edge="1">
          <mxGeometry y="-10" width="80" relative="1" as="geometry">
            <mxPoint x="282" y="1720" as="sourcePoint" />
            <mxPoint x="202" y="1720" as="targetPoint" />
            <mxPoint as="offset" />
          </mxGeometry>
        </mxCell>
        <mxCell id="FN6uFi2FY-VIn-DNgAR3-6" value="" style="line;strokeWidth=1;fillColor=none;align=left;verticalAlign=middle;spacingTop=-1;spacingLeft=3;spacingRight=3;rotatable=0;labelPosition=right;points=[];portConstraint=eastwest;strokeColor=inherit;" parent="1" vertex="1">
          <mxGeometry x="170" y="1728.25" width="150" height="8" as="geometry" />
        </mxCell>
        <mxCell id="FN6uFi2FY-VIn-DNgAR3-9" value="" style="endArrow=none;html=1;rounded=0;exitX=0.5;exitY=0;exitDx=0;exitDy=0;entryX=0.5;entryY=1;entryDx=0;entryDy=0;" parent="1" source="FN6uFi2FY-VIn-DNgAR3-11" target="kKvPtTwiiA1jm8snr2tL-15" edge="1">
          <mxGeometry width="50" height="50" relative="1" as="geometry">
            <mxPoint x="394.7149999999999" y="2379.705" as="sourcePoint" />
            <mxPoint x="283.28" y="2256" as="targetPoint" />
          </mxGeometry>
        </mxCell>
        <mxCell id="FN6uFi2FY-VIn-DNgAR3-10" value="&lt;b&gt;1.1.1.1: findBicycle()&lt;/b&gt;" style="html=1;verticalAlign=bottom;endArrow=block;curved=0;rounded=0;" parent="1" edge="1">
          <mxGeometry x="0.2034" y="76" width="80" relative="1" as="geometry">
            <mxPoint x="314.21" y="2295" as="sourcePoint" />
            <mxPoint x="314" y="2346" as="targetPoint" />
            <mxPoint as="offset" />
          </mxGeometry>
        </mxCell>
        <mxCell id="FN6uFi2FY-VIn-DNgAR3-11" value="&lt;b&gt;:BicycleCollection&lt;/b&gt;" style="html=1;whiteSpace=wrap;" parent="1" vertex="1">
          <mxGeometry x="222.5" y="2367.75" width="135" height="42.5" as="geometry" />
        </mxCell>
        <mxCell id="FN6uFi2FY-VIn-DNgAR3-12" value="&lt;b&gt;:MemberCollection&lt;/b&gt;" style="html=1;whiteSpace=wrap;" parent="1" vertex="1">
          <mxGeometry x="565" y="2367.75" width="142.08" height="42.5" as="geometry" />
        </mxCell>
        <mxCell id="FN6uFi2FY-VIn-DNgAR3-15" value="" style="endArrow=none;html=1;rounded=0;entryX=0.5;entryY=1;entryDx=0;entryDy=0;" parent="1" target="KVHF5Dy5_9hEab3SbXI--6" edge="1">
          <mxGeometry width="50" height="50" relative="1" as="geometry">
            <mxPoint x="630" y="2366" as="sourcePoint" />
            <mxPoint x="635.54" y="2256" as="targetPoint" />
          </mxGeometry>
        </mxCell>
        <mxCell id="FN6uFi2FY-VIn-DNgAR3-16" value="&lt;b&gt;1.1.2.1:&amp;nbsp;&lt;/b&gt;&lt;b&gt;getAllMembers()&lt;/b&gt;" style="html=1;verticalAlign=bottom;endArrow=block;curved=0;rounded=0;" parent="1" edge="1">
          <mxGeometry x="0.1997" y="99" width="80" relative="1" as="geometry">
            <mxPoint x="646.21" y="2295" as="sourcePoint" />
            <mxPoint x="646" y="2346" as="targetPoint" />
            <mxPoint as="offset" />
          </mxGeometry>
        </mxCell>
        <mxCell id="FN6uFi2FY-VIn-DNgAR3-17" value="" style="endArrow=none;html=1;rounded=0;exitX=0.5;exitY=0;exitDx=0;exitDy=0;entryX=0.5;entryY=1;entryDx=0;entryDy=0;" parent="1" source="FN6uFi2FY-VIn-DNgAR3-19" target="4MyRHnNNQHZquPPOq6WB-39" edge="1">
          <mxGeometry width="50" height="50" relative="1" as="geometry">
            <mxPoint x="1152.215" y="2369.705" as="sourcePoint" />
            <mxPoint x="1047.5" y="2236" as="targetPoint" />
          </mxGeometry>
        </mxCell>
        <mxCell id="FN6uFi2FY-VIn-DNgAR3-18" value="&lt;b&gt;1.1.3.1: addBicycle()&lt;/b&gt;" style="html=1;verticalAlign=bottom;endArrow=block;curved=0;rounded=0;" parent="1" edge="1">
          <mxGeometry x="0.2157" y="76" width="80" relative="1" as="geometry">
            <mxPoint x="1071.71" y="2285" as="sourcePoint" />
            <mxPoint x="1071.5" y="2336" as="targetPoint" />
            <mxPoint as="offset" />
          </mxGeometry>
        </mxCell>
        <mxCell id="FN6uFi2FY-VIn-DNgAR3-19" value="&lt;b&gt;:BicycleCollection&lt;/b&gt;" style="html=1;whiteSpace=wrap;" parent="1" vertex="1">
          <mxGeometry x="980" y="2367.75" width="135" height="42.5" as="geometry" />
        </mxCell>
        <mxCell id="FN6uFi2FY-VIn-DNgAR3-20" value="" style="endArrow=none;html=1;rounded=0;entryX=0.5;entryY=1;entryDx=0;entryDy=0;" parent="1" source="FN6uFi2FY-VIn-DNgAR3-22" target="nvlYyYwGG8XTySucCO5U-17" edge="1">
          <mxGeometry width="50" height="50" relative="1" as="geometry">
            <mxPoint x="502" y="916.1" as="sourcePoint" />
            <mxPoint x="459.80999999999995" y="850.0000000000001" as="targetPoint" />
          </mxGeometry>
        </mxCell>
        <mxCell id="FN6uFi2FY-VIn-DNgAR3-21" value="&lt;div&gt;&lt;b style=&quot;background-color: light-dark(#ffffff, var(--ge-dark-color, #121212)); color: light-dark(rgb(0, 0, 0), rgb(255, 255, 255));&quot;&gt;2: logout()&lt;br&gt;3: getId()&lt;/b&gt;&lt;/div&gt;" style="html=1;verticalAlign=bottom;endArrow=block;curved=0;rounded=0;align=left;" parent="1" edge="1">
          <mxGeometry x="0.4272" y="-84" width="80" relative="1" as="geometry">
            <mxPoint x="450" y="880" as="sourcePoint" />
            <mxPoint x="450.04" y="950" as="targetPoint" />
            <mxPoint as="offset" />
          </mxGeometry>
        </mxCell>
        <mxCell id="FN6uFi2FY-VIn-DNgAR3-22" value="&lt;b&gt;:Member&lt;/b&gt;" style="html=1;whiteSpace=wrap;" parent="1" vertex="1">
          <mxGeometry x="397" y="960.85" width="135" height="42.5" as="geometry" />
        </mxCell>
        <mxCell id="FN6uFi2FY-VIn-DNgAR3-24" value="" style="line;strokeWidth=1;fillColor=none;align=left;verticalAlign=middle;spacingTop=-1;spacingLeft=3;spacingRight=3;rotatable=0;labelPosition=right;points=[];portConstraint=eastwest;strokeColor=inherit;" parent="1" vertex="1">
          <mxGeometry x="779.5" y="2067.5" width="170.5" height="8" as="geometry" />
        </mxCell>
        <mxCell id="FN6uFi2FY-VIn-DNgAR3-25" value="&lt;b&gt;:Bicycle&lt;/b&gt;" style="html=1;whiteSpace=wrap;" parent="1" vertex="1">
          <mxGeometry x="955" y="2046.5" width="135" height="50" as="geometry" />
        </mxCell>
        <mxCell id="FN6uFi2FY-VIn-DNgAR3-26" value="&lt;b&gt;1.1.4 getBicycleDetail()&lt;/b&gt;" style="html=1;verticalAlign=bottom;endArrow=block;curved=0;rounded=0;" parent="1" edge="1">
          <mxGeometry x="-0.05" y="10" width="80" relative="1" as="geometry">
            <mxPoint x="827" y="2056" as="sourcePoint" />
            <mxPoint x="907" y="2056" as="targetPoint" />
            <mxPoint as="offset" />
          </mxGeometry>
        </mxCell>
        <mxCell id="_Fmzijo2iNxmLlWcbkhu-1" value="" style="endArrow=none;html=1;rounded=0;exitX=0.5;exitY=0;exitDx=0;exitDy=0;" parent="1" edge="1">
          <mxGeometry width="50" height="50" relative="1" as="geometry">
            <mxPoint x="630" y="1845" as="sourcePoint" />
            <mxPoint x="630" y="1751" as="targetPoint" />
          </mxGeometry>
        </mxCell>
        <mxCell id="_Fmzijo2iNxmLlWcbkhu-2" value="&lt;b&gt;2.1: getAllBicycles()&lt;/b&gt;" style="html=1;verticalAlign=bottom;endArrow=block;curved=0;rounded=0;" parent="1" edge="1">
          <mxGeometry x="0.2325" y="76" width="80" relative="1" as="geometry">
            <mxPoint x="654.21" y="1770" as="sourcePoint" />
            <mxPoint x="654" y="1821" as="targetPoint" />
            <mxPoint as="offset" />
          </mxGeometry>
        </mxCell>
        <mxCell id="_Fmzijo2iNxmLlWcbkhu-3" value="&lt;b&gt;:BicycleCollection&lt;/b&gt;" style="html=1;whiteSpace=wrap;" parent="1" vertex="1">
          <mxGeometry x="562.5" y="1844" width="135" height="42.5" as="geometry" />
        </mxCell>
      </root>
    </mxGraphModel>
  </diagram>
</mxfile>
